<svg width="161" height="200" viewBox="0 0 161 200" fill="none" xmlns="http://www.w3.org/2000/svg">
<path d="M13.2762 92.9347C11.555 93.2565 9.79991 93.3571 8.03002 93.2343C6.9069 93.156 5.7499 93.0035 4.66595 92.6807C4.15573 92.5399 3.55977 92.3155 3.2041 91.9079C5.77637 89.7104 9.68241 91.1564 12.4018 92.5028C12.6897 92.6468 12.9777 92.7908 13.2762 92.9347Z" fill="#C2CAC2"/>
<path d="M160.463 72.8689C160.512 72.5608 160.444 72.2867 160.314 72.0771C160.289 71.8548 160.212 71.6335 160.04 71.425C156.774 67.5243 154.084 63.1493 152.088 58.479C151.079 56.1227 150.281 53.6785 149.619 51.2004C149.003 48.9012 148.439 46.5597 147.327 44.4373C143.307 36.7682 132.37 36.6443 127.269 43.2094C125.077 46.0156 124.025 49.313 123.439 52.73C122.228 53.2032 120.864 53.2339 119.608 52.8602C118.396 52.4971 117.272 51.645 116.58 50.6394C116.45 50.451 116.278 50.3049 116.087 50.2128C114.295 43.6011 113.273 36.7354 111.618 30.111C109.245 20.6814 105.215 10.8422 97.1237 4.91754C88.7548 -1.21568 77.5321 -1.22944 68.2762 2.83432C58.5989 7.08439 51.6369 15.9 47.5107 25.4047C43.5178 34.5897 42.0337 44.4776 41.3224 54.4078C41.2599 54.5041 41.2091 54.6111 41.1679 54.7275C41.1372 54.8122 41.117 54.8873 41.0863 54.9614C41.0758 54.9826 41.0144 55.1424 41.0144 55.1424C40.9329 55.334 40.8397 55.5256 40.7476 55.7183C40.573 56.0591 40.3877 56.401 40.1802 56.7218C40.0659 56.8933 39.9526 57.0743 39.8277 57.2458C39.8066 57.2775 39.8066 57.2669 39.797 57.2881C39.7864 57.2987 39.7864 57.2987 39.7557 57.3421C39.6933 57.4173 39.6308 57.503 39.5578 57.5887C39.308 57.8999 39.037 58.1889 38.7448 58.4684C38.6093 58.6081 38.4739 58.7373 38.3267 58.8664C38.2431 58.931 38.17 59.0061 38.0864 59.0707C38.0758 59.0813 38.0028 59.1353 37.9615 59.1787C37.6577 59.4158 37.3327 59.6328 37.0078 59.8382C36.6616 60.0446 36.3155 60.2404 35.9471 60.4151C35.873 60.4479 35.8 60.4807 35.7153 60.5135C35.7047 60.5241 35.5681 60.5791 35.5364 60.5897C35.3469 60.667 35.1468 60.7326 34.9468 60.7993C34.8833 60.8215 34.8208 60.8438 34.7573 60.8766C33.8194 59.0273 33.1112 56.9631 31.9341 55.3605C29.3195 51.8207 25.1012 51.4809 21.1052 52.5987C17.0457 53.7282 13.3672 56.238 10.8225 59.5788C7.78973 63.5515 6.85504 68.3605 5.9521 73.1483C4.78346 79.2953 3.04003 85.3026 0.617018 91.0759C0.412718 91.5554 0.556684 92.0085 0.846726 92.3218C0.879541 92.3959 0.933522 92.4584 0.987508 92.5208C1.99419 94.6972 4.89037 95.1206 7.0424 95.3641C10.0222 95.7007 13.0454 95.4234 15.9236 94.5871C16.0602 94.5426 16.1872 94.4876 16.2814 94.423L16.292 94.4124C16.3343 94.4008 16.3767 94.3796 16.418 94.3468C16.8435 94.5098 17.2701 94.6622 17.7051 94.7935H17.7157C17.738 94.8888 17.7824 94.9724 17.8364 95.0666C19.5714 97.8675 22.6274 99.0616 25.6273 100.023C25.9766 105.057 25.9565 110.096 25.5649 115.12C25.3881 115.344 25.3288 115.642 25.4505 116C26.2148 118.319 27.4533 120.427 29.1734 122.181C30.4956 123.528 32.076 124.489 33.6892 125.428C35.0643 130.362 36.1016 135.375 36.7167 140.458C36.6447 140.607 36.6055 140.799 36.6193 141.01C36.8151 144.236 39.055 146.765 41.8707 148.174C43.8756 149.171 46.0509 149.51 48.2442 149.657C48.2559 149.72 48.2358 149.784 48.258 149.858C49.2043 153.708 49.6966 157.639 49.7442 161.608C49.7495 161.957 49.9231 162.241 50.1803 162.438C51.0145 165.189 53.6566 166.981 56.3262 167.852C59.8258 168.997 64.1203 168.721 66.9647 171.379C67.5225 171.911 67.8803 172.467 68.1121 173.067C68.1153 173.278 68.1703 173.457 68.2677 173.604C68.5377 174.648 68.5006 175.782 68.5821 176.998C68.7017 178.68 69.2236 180.271 70.1339 181.686C71.0115 183.06 72.1293 184.187 73.3826 185.164C72.9952 189.743 72.6183 194.333 72.2309 198.912C72.1409 199.993 73.895 200.444 74.3247 199.432C75.2954 197.088 77.7025 195.92 79.3814 194.149C80.6326 192.828 81.526 190.984 81.3408 189.197C82.2427 187.172 83.4536 185.344 85.0192 183.764C86.6992 182.098 88.6522 181.001 90.6994 179.858C92.3475 178.934 94.0264 177.882 95.0712 176.258C96.4791 174.067 95.9561 171.661 95.6767 169.241C95.6047 168.628 95.5952 168.046 95.6407 167.495C95.6714 167.399 95.6905 167.292 95.6894 167.187L95.6883 167.091C96.3118 162.742 100.53 160.17 104.561 158.554C108.939 156.796 114.138 155.385 116.378 150.789C117.312 148.88 117.683 146.672 118.149 144.527C118.316 144.356 118.407 144.121 118.424 143.835C118.431 143.634 118.44 143.443 118.447 143.242C118.917 141.403 119.559 139.669 120.84 138.252C121.051 138.196 121.25 138.066 121.417 137.863C125.7 132.549 122.57 125.608 123.032 119.556C123.289 116.217 125.013 113.916 127.75 112.129C130.088 110.581 132.631 109.337 134.559 107.255C134.57 107.234 134.59 107.222 134.601 107.201C134.83 107.018 134.985 106.73 135.001 106.358C135.132 103.064 135.263 99.7697 135.405 96.4745C135.52 96.43 135.637 96.3866 135.752 96.3422C140.019 94.966 145.374 95.5229 148.385 91.5501C148.562 91.3151 148.663 91.0484 148.67 90.7837C148.942 90.5255 149.073 90.1105 148.993 89.6881C148.511 87.2069 148.03 84.7373 147.549 82.2561C147.896 82.1238 148.243 81.9809 148.581 81.8708C153.257 80.3009 159.606 78.6623 160.463 72.8689ZM131.42 100.548C131.593 99.413 132.257 98.4815 133.125 97.7701C133.039 99.8459 132.953 101.923 132.868 104.009C131.933 103.049 131.217 101.916 131.42 100.548ZM141.822 87.3625C141.811 87.3413 141.801 87.3308 141.789 87.3096V87.299C141.809 87.2461 141.819 87.1931 141.819 87.1286C141.828 87.0333 141.826 86.938 141.836 86.8428C141.836 86.8322 141.836 86.8322 141.836 86.8216C141.957 86.4702 142.217 86.0753 142.319 85.9144C143.085 84.7172 144.216 83.864 145.465 83.1897C145.82 84.9628 146.164 86.7475 146.507 88.5206C145.455 88.2718 144.404 88.0326 143.352 87.7838C143.002 87.7044 142.017 87.6875 141.822 87.3625ZM51.7872 157.907C51.567 155.158 51.1351 152.434 50.5021 149.743C51.2113 149.764 51.911 149.774 52.6097 149.786C54.1351 149.827 56.0277 149.714 57.3954 150.551C58.9229 151.503 57.5012 152.71 56.5157 153.392C54.6717 154.667 53.085 156.163 51.7872 157.907ZM33.4309 105.627C33.4754 105.795 33.541 105.932 33.6278 106.047C33.0816 107.791 31.2577 109.025 29.8657 110.051C29.2168 110.537 28.5891 111.055 28.0038 111.593C28.152 107.991 28.1308 104.391 27.9074 100.785C30.3442 101.659 32.7873 102.968 33.4309 105.627ZM8.03002 93.2343C6.9069 93.1559 5.74991 93.0035 4.66596 92.6806C4.15574 92.5399 3.55978 92.3155 3.20411 91.9079C5.77638 89.7104 9.68242 91.1563 12.4018 92.5028C12.6898 92.6468 12.9777 92.7907 13.2762 92.9347C11.556 93.2565 9.79991 93.356 8.03002 93.2343ZM36.4372 127.136C38.0748 128.34 39.3461 129.846 39.5165 132.067C39.6488 133.854 39.1767 135.544 38.4908 137.175C37.9753 133.794 37.2798 130.449 36.4372 127.136ZM76.7795 193.543C76.1105 194.124 75.4203 194.696 74.7619 195.288C74.9937 192.383 75.2372 189.501 75.4912 186.607C76.5593 187.258 77.6697 187.845 78.778 188.41C78.778 188.421 78.7897 188.442 78.8003 188.453C78.9093 188.631 78.9855 188.82 79.0416 189C78.9823 189.287 79.0395 189.55 79.1697 189.781C79.1485 191.254 77.8455 192.638 76.7795 193.543Z" fill="#FFFDFE"/>
<path d="M85.5442 2.11662C92.0998 4.36603 96.732 10.0684 99.4832 16.2302C102.866 23.8073 103.507 32.2863 104.651 40.4022C105.694 47.7908 107.169 55.3467 111.04 61.8377C112.906 64.9647 115.322 67.8567 118.385 69.8689C120.874 71.5033 124.709 72.89 126.36 69.4275C127.144 67.7815 127.239 65.7808 127.427 63.9951C127.666 61.7149 127.772 59.4243 127.896 57.1367C128.143 52.5299 128.503 47.9221 130.129 43.563C130.546 42.4452 128.682 41.719 128.173 42.8008C126.422 46.5153 124.93 50.3409 123.683 54.2522C121.576 54.2395 119.321 54.0394 117.612 52.7258C115.954 51.4523 115.204 49.3585 114.62 47.432C113.096 42.3901 111.776 37.2805 110.345 32.2111C108.998 27.4434 107.551 22.6683 105.289 18.2425C103.151 14.0581 100.294 10.2653 96.9289 6.99017C96.6103 6.68001 96.243 6.64932 95.9201 6.75941C93.2356 3.77642 89.9372 1.39469 86.0513 0.0619748C84.7641 -0.380498 84.2623 1.67626 85.5442 2.11662Z" fill="#E5E5E5"/>
<path d="M155.911 68.6665C154.581 67.1072 153.805 65.0991 153.021 63.2308C151.174 58.823 149.481 54.3517 147.922 49.8338C147.727 49.2654 147.221 49.0749 146.753 49.132C146.203 45.8505 145.366 42.5574 143.012 40.0814C142.072 39.0927 140.599 40.6139 141.537 41.6004C144.216 44.4172 144.666 48.8441 145.129 52.5257C145.672 56.8531 145.823 61.2302 145.572 65.584C145.47 67.3613 145.419 69.2264 144.867 70.9349C144.645 71.624 144.319 72.3682 143.758 72.8562C143.229 73.3166 142.587 73.3399 141.961 73.5792C141.864 70.2532 141.645 66.9304 141.281 63.6225C140.915 60.2933 140.484 57.0065 139.06 53.941C138.402 52.5225 136.584 53.2371 136.149 54.3655C134.833 57.775 134.367 61.3868 133.88 64.9869C133.78 65.7226 133.681 66.4583 133.581 67.194C133.386 67.4332 133.254 67.7413 133.227 68.1171C132.922 72.3078 132.134 76.4542 130.887 80.4671C130.261 82.4837 129.52 84.461 128.656 86.3876C127.981 87.8918 127.273 89.4796 126.145 90.7054C125.808 91.0717 125.38 91.3437 124.934 91.5956C125.172 86.7052 125.283 81.8009 124.767 76.9644C124.553 74.9553 121.644 74.9362 121.591 77.011C121.341 86.9645 120.741 96.9043 119.816 106.816C119.778 106.357 119.741 105.899 119.699 105.44C119.387 101.95 119.075 98.4593 118.763 94.9692C118.646 93.663 117.437 93.2142 116.544 93.5921C115.708 93.609 114.817 94.2875 114.832 95.2095C114.954 102.436 115.076 109.663 115.196 116.891C115.232 119.046 115.268 121.202 115.305 123.357C115.004 124.832 114.607 126.292 114.066 127.729C113.262 129.866 112.023 132.233 109.878 133.279C107.959 134.215 105.747 133.764 103.959 132.747C99.5531 130.24 98.4247 124.721 97.5133 120.147C96.1795 113.453 95.1072 106.703 94.869 99.8724C94.8352 98.8933 94.0868 98.3979 93.3257 98.3682C92.6451 97.1403 90.3385 97.423 90.3448 99.1706C90.3914 111.667 90.438 124.163 90.4846 136.659C90.5184 145.777 90.8296 155.042 90.2432 164.196C89.5816 164.367 88.8703 164.37 88.2711 164.184C86.6198 163.673 85.4268 162.162 84.7684 160.622C83.8316 158.436 83.7977 155.956 83.7151 153.62C83.6273 151.161 83.5458 148.702 83.4611 146.243C83.1097 136.056 82.7582 125.867 82.4068 115.68C82.3803 114.902 81.9018 114.427 81.3249 114.251C80.5501 113.383 78.5992 113.764 78.4605 115.337C77.0844 130.992 76.2228 146.688 75.865 162.398C74.6709 161.187 74.4962 157.859 74.3301 156.776C73.8569 153.679 73.4589 150.572 73.1254 147.457C72.467 141.3 72.0785 135.117 71.9409 128.926C71.9325 128.532 71.8054 128.216 71.6085 127.977C71.6085 127.974 71.6085 127.969 71.6085 127.966C71.5916 126.224 68.7134 125.775 68.4795 127.61L67.0007 139.153C65.4383 137.523 65.4266 134.339 65.2414 132.313C64.9164 128.754 64.6232 125.193 64.3607 121.629C63.8293 114.414 63.4291 107.19 63.1518 99.9613C63.0735 97.9194 59.8978 97.9607 59.9762 100.008C60.1275 103.945 60.3159 107.88 60.5414 111.814C59.9751 111.991 59.5273 112.477 59.557 113.286C59.7772 119.236 59.5475 125.187 59.1283 131.123C58.9028 134.313 58.7228 137.541 58.4084 140.747C57.5669 140.466 56.5634 140.366 55.8224 140.045C52.0095 138.391 49.2679 134.753 47.8886 130.92C46.1473 126.083 46.0764 120.886 45.9049 115.808C45.7228 110.448 45.4063 105.095 45.0094 99.7475C44.7881 96.755 44.5552 93.7614 44.2821 90.7731C44.0291 87.9966 43.6682 85.2285 42.6403 82.6192C42.4265 82.0772 41.929 81.8877 41.4685 81.9322C41.0292 81.4103 40.1358 81.5045 39.7346 82.11C39.2562 82.8319 38.549 83.9476 37.6609 84.225C36.6119 84.5531 35.8667 83.7169 35.2982 82.96C34.0629 81.314 33.2447 79.3419 32.5005 77.4397C30.8608 73.2468 29.291 69.0242 27.6883 64.8165C27.4946 64.3095 27.0522 64.1052 26.6203 64.1136C26.0021 63.8448 25.1574 64.1899 25.0991 64.8885C24.6884 65.0875 24.3836 65.5035 24.5233 66.073C27.2184 77.0025 29.6964 87.9828 31.9755 99.0065C30.2892 97.7479 28.7257 96.3443 27.6714 94.4791C26.326 92.1006 25.7967 89.3568 25.2971 86.6999C24.1052 80.3623 22.9418 74.0185 21.7647 67.6778C21.6313 66.9601 20.9909 66.8034 20.4585 67.0056C20.0086 66.579 19.1766 66.4911 18.7457 67.1813C17.3368 69.4403 16.2931 71.9289 15.7469 74.5393C15.225 77.0311 15.3055 80.0755 13.4234 82.0253C11.6196 83.8937 8.98276 84.0948 6.65396 84.8707C4.55168 85.5704 2.55631 87.191 2.78073 89.6215C2.82836 90.138 3.10994 90.4619 3.58522 90.6334C6.4486 91.6666 9.31196 92.7018 12.1764 93.7329C14.6587 94.6263 17.1325 95.4371 19.7704 95.6245C23.5664 98.6985 28.0959 100.46 32.6476 102.112C32.6582 102.145 32.6805 102.163 32.6932 102.193C32.7503 102.895 32.8117 103.596 32.8646 104.299C32.346 106.182 31.6325 107.996 30.6777 109.714C30.069 110.809 29.3831 111.864 28.6093 112.849C28.134 113.455 27.5349 114.026 27.2903 114.761C26.7579 115.017 26.4064 115.678 26.7939 116.243C29.5027 120.193 32.8752 123.551 36.8268 126.257C36.9718 126.356 37.1168 126.398 37.2597 126.411C37.3105 126.566 37.3677 126.715 37.4122 126.874C37.5043 127.203 37.7329 127.406 38.0018 127.516C39.3631 133.52 36.3917 140.539 40.8471 145.734C44.913 150.476 51.5681 148.306 56.8047 150.195C55.9357 153.103 54.549 155.77 52.1387 157.827C51.7587 158.152 51.4665 158.497 51.2273 158.852C50.6885 159.117 50.2915 159.673 50.3211 160.296C50.464 163.306 53.0331 165.457 55.6488 166.516C57.7701 167.375 60.0566 167.686 62.3018 167.388C65.2424 169.087 67.64 171.665 68.9558 174.877C69.2152 175.511 69.7751 175.862 70.3499 175.945C70.6728 177.941 71.2656 179.889 72.3019 181.747C73.5584 184 75.4553 185.997 77.8391 187.053C78.8935 187.52 80.2008 187.856 81.2498 187.168C82.2935 186.483 82.3634 185.43 82.2406 184.36L86.2811 181.174C86.8686 180.711 87.4698 180.254 88.0689 179.795C89.2513 179.312 90.2972 178.696 91.0678 177.701C92.4238 177.038 93.476 175.888 94.0868 174.391C95.14 171.806 94.5218 169.006 93.8581 166.406C93.8042 166.196 93.7131 166.018 93.5956 165.869C93.9365 165.566 94.2434 165.219 94.5155 164.835C94.6065 164.768 94.6955 164.69 94.7791 164.594C97.9992 160.861 102.064 158.044 106.723 156.414C109.089 155.586 111.424 154.759 113.182 152.882C114.771 151.187 115.768 149.049 116.492 146.865C117.279 144.493 117.75 142.04 118.043 139.558C118.304 139.265 118.582 138.983 118.823 138.678C120.702 136.302 121.628 133.617 121.719 130.591C121.815 127.353 121.067 124.123 121.537 120.892C121.852 118.73 122.502 116.643 123.055 114.533C123.068 114.525 123.083 114.523 123.094 114.514L131.676 108.247C132.479 107.66 132.795 106.498 131.977 105.738C129.403 103.347 130.177 100.099 130.686 96.9911C130.723 96.7645 130.767 96.5401 130.805 96.3136C131.035 96.3633 131.285 96.3686 131.55 96.2977C136.223 95.0412 140.84 93.59 145.391 91.945C146.52 91.5374 146.959 90.1772 146.072 89.2753C145.145 88.3332 143.902 88.1691 142.897 87.3996C142.138 86.8174 141.948 85.8223 141.892 84.8845C142.216 84.8538 142.54 84.6886 142.752 84.3795C144.897 81.2695 149.002 80.5084 152.255 79.0783C154.841 77.9414 158.851 75.5322 158.762 72.2105C158.716 70.4607 156.915 69.8425 155.911 68.6665Z" fill="#E5E5E5"/>
<path d="M79.1688 189.781C79.1476 191.254 77.8456 192.638 76.7786 193.543C76.1096 194.124 75.4194 194.696 74.761 195.288C74.9928 192.383 75.2363 189.501 75.4903 186.607C76.5584 187.258 77.6688 187.845 78.7771 188.41C78.7771 188.421 78.7887 188.442 78.7993 188.453C78.9084 188.631 78.9846 188.82 79.0407 189C78.9814 189.287 79.0386 189.55 79.1688 189.781Z" fill="#C2CAC2"/>
<path d="M33.6269 106.047C33.0807 107.791 31.2568 109.025 29.8648 110.051C29.2159 110.537 28.5882 111.055 28.0028 111.593C28.151 107.992 28.1298 104.391 27.9065 100.785C30.3433 101.659 32.7875 102.968 33.43 105.626C33.4755 105.795 33.5411 105.932 33.6269 106.047Z" fill="#C2CAC2"/>
<path d="M146.508 88.5206C145.456 88.2718 144.405 88.0326 143.353 87.7838C143.002 87.7044 142.017 87.6875 141.822 87.3615C141.812 87.3403 141.801 87.3297 141.789 87.3085V87.2979C141.809 87.245 141.819 87.1921 141.819 87.1275C141.828 87.0322 141.826 86.937 141.836 86.8417C141.836 86.8311 141.836 86.8311 141.836 86.8205C141.958 86.4691 142.217 86.0743 142.32 85.9134C143.085 84.7161 144.217 83.863 145.466 83.1887C145.82 84.9638 146.164 86.7475 146.508 88.5206Z" fill="#C2CAC2"/>
<path d="M133.125 97.7701C133.039 99.846 132.953 101.923 132.868 104.009C131.933 103.049 131.217 101.916 131.42 100.548C131.593 99.413 132.257 98.4815 133.125 97.7701Z" fill="#C2CAC2"/>
<path d="M39.5166 132.067C39.6489 133.854 39.1768 135.544 38.4908 137.175C37.9753 133.795 37.2799 130.449 36.4373 127.137C38.0748 128.34 39.3461 129.846 39.5166 132.067Z" fill="#C2CAC2"/>
<path d="M56.5158 153.392C54.6718 154.668 53.084 156.163 51.7873 157.907C51.5671 155.158 51.1352 152.434 50.5022 149.743C51.2114 149.764 51.9111 149.774 52.6098 149.786C54.1351 149.827 56.0278 149.714 57.3955 150.551C58.9229 151.503 57.5013 152.71 56.5158 153.392Z" fill="#C2CAC2"/>
<path d="M119.322 64.2025C113.119 53.5589 112.269 41.1537 109.165 29.4907C106.778 20.5269 102.698 10.964 94.5335 5.82367C85.8672 0.382733 74.492 1.46139 65.9178 6.54242C57.2176 11.6997 51.348 20.7217 48.0358 30.1078C44.0831 41.2924 43.4448 53.2752 42.9833 65.0229C42.9304 66.453 40.6968 66.4858 40.7604 65.0557C40.8376 63.1281 40.9149 61.1994 41.0239 59.2612C41.0949 57.6406 41.1986 56.0295 41.3225 54.4078C42.0338 44.4776 43.5179 34.5886 47.5107 25.4047C51.6369 15.9 58.6001 7.0844 68.2762 2.83433C77.5322 -1.23049 88.7549 -1.21568 97.1238 4.91755C105.214 10.8433 109.245 20.6825 111.618 30.111C113.273 36.7354 114.296 43.6011 116.087 50.2128C116.456 51.5624 116.857 52.9015 117.3 54.2279C118.319 57.2722 119.59 60.2393 121.242 63.0731C121.959 64.3116 120.05 65.441 119.322 64.2025Z" fill="#494949"/>
<path d="M125.557 53.4499C125.557 53.4499 125.547 53.4605 125.557 53.471C125.559 53.6087 125.54 53.7568 125.479 53.8849C125.408 54.1295 125.252 54.3327 125.022 54.4523C124.401 54.7582 123.759 54.9795 123.094 55.1266C121.775 55.4315 120.399 55.4103 119.08 55.0165C118.452 54.8249 117.856 54.5688 117.301 54.2279C116.264 53.6288 115.364 52.7851 114.66 51.7689C114.313 51.2767 114.568 50.5315 115.05 50.2488C115.386 50.0424 115.767 50.0583 116.088 50.2118C116.279 50.3039 116.451 50.4499 116.581 50.6384C117.273 51.644 118.397 52.4961 119.609 52.8592C120.864 53.2329 122.229 53.2022 123.44 52.729C123.598 52.6739 123.745 52.6083 123.892 52.5321C124.428 52.2706 125.086 52.3765 125.412 52.9227C125.51 53.0698 125.555 53.2699 125.557 53.4499Z" fill="#494949"/>
<path d="M160.314 72.0771C160.391 73.0182 159.239 73.9031 158.496 73.0139C158.41 72.9091 158.313 72.7948 158.226 72.69C155.09 68.9036 152.456 64.7509 150.452 60.2489C148.656 56.2105 147.757 51.9785 146.351 47.8067C145.035 43.9409 142.357 41.1326 138.169 40.6859C134.214 40.2678 130.589 42.1107 128.414 45.4038C126.799 47.8417 126.003 50.6055 125.558 53.4499C125.558 53.4499 125.548 53.4604 125.558 53.471C125.529 53.6086 125.51 53.7473 125.48 53.8849C125.221 55.6675 125.078 57.4692 124.935 59.239C124.829 60.6596 122.606 60.703 122.712 59.2719C122.819 57.9042 122.936 56.5165 123.095 55.1266C123.189 54.321 123.305 53.525 123.441 52.729C124.026 49.3109 125.078 46.0146 127.271 43.2084C132.372 36.6433 143.31 36.7682 147.329 44.4363C148.441 46.5587 149.004 48.9002 149.621 51.1994C150.283 53.6774 151.081 56.1216 152.09 58.478C154.085 63.1493 156.776 67.5243 160.042 71.424C160.211 71.6336 160.288 71.8548 160.314 72.0771Z" fill="#494949"/>
<path d="M160.463 72.8689C160.512 72.5608 160.444 72.2867 160.314 72.0771C159.815 71.3118 158.47 71.226 158.306 72.329C158.287 72.456 158.267 72.5735 158.226 72.69C157.663 75.3872 155.274 77.1062 152.822 78.1055C149.971 79.2805 146.887 79.8235 144.179 81.3563C143.475 81.7586 142.701 82.2889 141.98 82.9134C140.757 83.99 139.708 85.3608 139.603 86.8766C139.596 87.0672 139.598 87.2577 139.612 87.4588C139.612 87.4694 139.612 87.48 139.612 87.48L139.613 87.5223C139.774 89.1292 141.115 89.5537 142.474 89.8723C143.706 90.1507 144.938 90.4397 146.16 90.7181C146.66 90.8377 147.158 90.9468 147.658 91.0664C148.073 91.1659 148.431 91.0335 148.67 90.7869C148.942 90.5286 149.073 90.1137 148.993 89.6913C148.511 87.2101 148.03 84.7405 147.549 82.2592C147.896 82.1269 148.243 81.984 148.581 81.8739C153.258 80.3009 159.606 78.6623 160.463 72.8689ZM143.353 87.7838C143.002 87.7044 142.017 87.6875 141.822 87.3615C141.811 87.3403 141.801 87.3297 141.789 87.3085V87.2979C141.745 87.1826 141.774 87.0227 141.836 86.8417C141.836 86.8311 141.836 86.8311 141.836 86.8205C141.958 86.4691 142.217 86.0743 142.32 85.9134C143.085 84.7161 144.216 83.863 145.466 83.1887C145.82 84.9617 146.164 86.7464 146.507 88.5195C145.456 88.2718 144.405 88.0336 143.353 87.7838Z" fill="#494949"/>
<path d="M140.325 58.0715C140.283 57.4914 139.82 56.9399 139.197 56.9759C138.624 57.0087 138.057 57.4839 138.101 58.1043C138.237 59.9779 138.372 61.8526 138.508 63.7262C138.549 64.3063 139.012 64.8578 139.636 64.8218C140.209 64.789 140.776 64.3137 140.732 63.6934C140.596 61.8187 140.461 59.9451 140.325 58.0715Z" fill="#494949"/>
<path d="M141.979 82.9135C141.955 84.2155 141.911 85.5185 141.835 86.8216C141.835 86.8322 141.835 86.8322 141.835 86.8428C141.825 86.938 141.827 87.0333 141.818 87.1286C141.819 87.1921 141.809 87.245 141.788 87.299V87.3096C141.562 88.4454 139.837 88.5237 139.61 87.479C139.61 87.479 139.61 87.4684 139.61 87.4578C139.587 87.3731 139.575 87.2683 139.584 87.1614C139.594 87.0661 139.592 86.9709 139.601 86.8756C139.973 80.4544 139.75 74.0322 138.958 67.6598C138.778 66.2329 141.001 66.2212 141.181 67.627C141.817 72.6995 142.084 77.8091 141.979 82.9135Z" fill="#494949"/>
<path d="M148.361 89.9761C147.974 89.6003 147.158 89.5283 146.794 89.9994C146.597 90.2566 146.388 90.5033 146.159 90.7181C142.695 94.168 136.576 92.7336 132.582 95.3969H132.571C130.799 96.5772 129.314 98.4942 129.176 100.677V100.688C129.157 100.857 129.16 101.016 129.163 101.185C129.237 103.365 130.649 105.038 132.225 106.423C132.515 106.683 132.815 106.933 133.114 107.172C133.585 107.558 134.199 107.527 134.597 107.203C134.827 107.02 134.982 106.732 134.997 106.36C135.129 103.066 135.26 99.7719 135.402 96.4766C135.517 96.4322 135.634 96.3888 135.749 96.3443C140.016 94.9682 145.371 95.525 148.382 91.5523C148.559 91.3173 148.66 91.0505 148.666 90.7859C148.696 90.5001 148.597 90.2153 148.361 89.9761ZM131.42 100.548C131.593 99.4131 132.257 98.4815 133.125 97.7702C133.039 99.846 132.953 101.923 132.868 104.009C131.933 103.049 131.217 101.917 131.42 100.548Z" fill="#494949"/>
<path d="M134.647 69.9124C133.492 80.0903 131.662 90.1772 129.166 100.112C128.818 101.499 130.976 102.036 131.325 100.644C133.822 90.7097 135.652 80.6228 136.807 70.4438C136.966 69.0433 134.809 68.4908 134.647 69.9124Z" fill="#494949"/>
<path d="M134.598 107.203C134.588 107.224 134.567 107.235 134.557 107.257C132.629 109.339 130.086 110.584 127.747 112.131C125.011 113.918 123.287 116.221 123.03 119.558C122.568 125.61 125.698 132.551 121.415 137.865C121.249 138.068 121.05 138.198 120.838 138.254C119.922 138.533 118.807 137.585 119.534 136.686C119.67 136.514 119.794 136.343 119.918 136.172C123.526 130.952 120.011 123.785 121.025 117.905C121.044 117.746 121.073 117.597 121.103 117.438C121.469 115.739 122.242 114.298 123.304 113.065C124.084 112.122 125.035 111.304 126.094 110.579C128.138 109.172 130.387 108.08 132.226 106.423C132.509 106.175 132.79 105.906 133.051 105.616C134.009 104.574 135.472 106.152 134.598 107.203Z" fill="#494949"/>
<path d="M122.095 85.7916C121.702 96.3231 121.31 106.855 120.918 117.386C120.865 118.819 123.088 118.781 123.142 117.353C123.534 106.822 123.926 96.2903 124.319 85.7588C124.372 84.3255 122.148 84.3637 122.095 85.7916Z" fill="#494949"/>
<path d="M123.411 75.1702C122.799 75.2051 122.318 75.6772 122.315 76.2986L122.297 79.4774C122.294 80.0596 122.834 80.6069 123.426 80.573C124.037 80.5381 124.518 80.066 124.521 79.4446L124.539 76.2658C124.542 75.6825 124.001 75.1363 123.411 75.1702Z" fill="#494949"/>
<path d="M43.3262 55.2568C42.8085 56.7356 42.0231 58.0926 41.0249 59.2613C39.6826 60.8375 37.9434 62.0696 35.9534 62.7979C35.8168 62.8529 35.6792 62.8974 35.5427 62.9419C34.9531 63.1409 34.3539 62.727 34.1761 62.168C34.0099 61.6621 34.3095 61.1286 34.7604 60.8787C34.8239 60.8459 34.8864 60.8237 34.9499 60.8015C35.1499 60.7348 35.35 60.6681 35.5395 60.5919C35.5712 60.5813 35.7078 60.5262 35.7184 60.5157C35.8031 60.4828 35.8761 60.45 35.9502 60.4172C36.3186 60.2426 36.6647 60.0467 37.0109 59.8403C37.3358 59.6339 37.6608 59.418 37.9646 59.1808C38.0059 59.1385 38.08 59.0834 38.0895 59.0729C38.1732 59.0083 38.2462 58.9331 38.3298 58.8686C38.4759 58.7394 38.6125 58.6103 38.748 58.4705C39.0401 58.1911 39.3111 57.901 39.5609 57.5909C39.634 57.5051 39.6964 57.4194 39.7589 57.3443C39.7896 57.3019 39.7896 57.3019 39.8001 57.2903C39.8107 57.2691 39.8107 57.2797 39.8308 57.2479C39.9557 57.0764 40.069 56.8954 40.1833 56.724C40.3908 56.4032 40.5761 56.0613 40.7507 55.7204C40.8428 55.5288 40.936 55.3362 41.0175 55.1446C41.0175 55.1446 41.0789 54.9847 41.0895 54.9636C41.1202 54.8895 41.1403 54.8143 41.171 54.7296C41.2112 54.6121 41.2631 54.5063 41.3255 54.41C41.5849 54.0247 42.0051 53.8182 42.5143 53.9156C43.0647 54.0225 43.5188 54.7148 43.3262 55.2568Z" fill="#494949"/>
<path d="M36.7262 66.4605C33.3176 64.319 32.529 60.3717 30.4913 57.1728C27.9984 53.2709 23.2329 53.8711 19.4676 55.5257C15.7754 57.1579 12.6739 60.0509 10.8754 63.6669C8.68525 68.061 8.33805 73.179 7.23186 77.8959C6.34586 81.6781 5.1931 85.4 3.80746 89.0308C3.52271 89.8078 3.21573 90.5742 2.89923 91.3416C2.79761 91.6073 2.6854 91.8846 2.57214 92.1514C2.24505 92.9294 1.43949 92.867 0.946205 92.4298C0.914448 92.398 0.871052 92.3673 0.849882 92.325C0.55984 92.0117 0.414816 91.5586 0.620174 91.0791C3.04425 85.3058 4.78662 79.2985 5.95525 73.1515C6.85819 68.3637 7.79289 63.5537 10.8256 59.582C13.3704 56.2412 17.0488 53.7304 21.1084 52.6019C25.1044 51.4841 29.3227 51.8239 31.9373 55.3637C33.1144 56.9663 33.8226 59.0305 34.7604 60.8798C35.1203 61.5625 35.5004 62.2136 35.9534 62.8C36.4605 63.47 37.0522 64.0544 37.7889 64.5191C39.0063 65.2728 37.934 67.2258 36.7262 66.4605Z" fill="#494949"/>
<path d="M23.6902 94.8549C22.7534 95.1862 21.8229 95.3164 20.902 95.309C19.8223 95.3143 18.7605 95.1185 17.7189 94.7946H17.7083C17.2722 94.6633 16.8467 94.5109 16.4211 94.3479C16.4106 94.3479 16.4 94.3373 16.3894 94.3373C15.8675 94.133 15.3562 93.9181 14.8439 93.6725C14.322 93.4365 13.7991 93.1898 13.2878 92.9336C13.2878 92.9336 13.2878 92.9336 13.2773 92.9336C12.9787 92.7897 12.6908 92.6457 12.4029 92.5018C9.68349 91.1553 5.77639 89.7093 3.20518 91.9069C2.97441 92.09 2.75635 92.3049 2.54782 92.5621C2.05877 93.1623 1.37918 92.9813 0.990693 92.5219C0.936707 92.4594 0.882726 92.397 0.849911 92.3229C0.632908 91.945 0.593737 91.4369 0.947292 91.0081C1.73803 90.0438 2.72354 89.4045 3.80855 89.0287C5.9881 88.2559 8.57625 88.5354 10.7367 89.3388C14.3347 90.6832 18.0947 93.6662 22.0854 92.9294C20.5399 85.7853 19.5544 78.5268 19.1818 71.2271C19.1077 69.7885 21.3307 69.7663 21.4048 71.1943C21.7806 78.6941 22.801 86.1537 24.465 93.4873C24.6111 94.1012 24.2798 94.6453 23.6902 94.8549Z" fill="#494949"/>
<path d="M16.3883 94.3383C16.3566 94.3606 16.3259 94.3923 16.2941 94.4135L16.2835 94.4241C16.1893 94.4886 16.0633 94.5437 15.9257 94.5881C13.0475 95.4244 10.0243 95.7017 7.04452 95.3651C4.89143 95.1217 1.99524 94.6982 0.989624 92.5219C0.968453 92.4901 0.956808 92.4583 0.946223 92.4276C0.880593 92.3017 0.836138 92.1641 0.791679 92.0169C0.39049 90.6779 2.42501 90.0766 2.89924 91.3405C2.90983 91.3617 2.92147 91.3934 2.93206 91.4241C2.98816 91.603 3.08555 91.7714 3.20411 91.9069C3.55978 92.3144 4.15574 92.5388 4.66596 92.6796C5.75097 93.0024 6.9069 93.1549 8.03002 93.2332C9.79991 93.3549 11.556 93.2554 13.2762 92.9336C13.2868 92.9336 13.2868 92.9336 13.2868 92.9336C13.941 92.8077 14.5846 92.6605 15.2281 92.4816C15.2599 92.4711 15.3022 92.4594 15.334 92.4478C16.5249 92.0921 17.1304 93.6503 16.3883 94.3383Z" fill="#494949"/>
<path d="M16.42 94.349C16.3787 94.3818 16.3363 94.4029 16.294 94.4146L16.2834 94.4252C16.168 94.4696 16.041 94.4919 15.8928 94.494C15.2894 94.5025 14.9348 94.1161 14.8427 93.6736C14.7305 93.2417 14.8607 92.7421 15.227 92.4827C15.3837 92.3536 15.6049 92.2763 15.8589 92.2721C17.0879 92.253 17.2816 93.8811 16.42 94.349Z" fill="#494949"/>
<path d="M34.5647 106.404C34.2058 106.451 33.8544 106.34 33.6279 106.047C33.5411 105.932 33.4755 105.795 33.431 105.627C32.7885 102.969 30.3443 101.66 27.9075 100.786C27.3009 100.562 26.705 100.37 26.1312 100.188C25.9608 100.137 25.801 100.087 25.6316 100.026C22.6317 99.0648 19.5757 97.8707 17.8407 95.0698C17.7867 94.9756 17.7423 94.8909 17.72 94.7967H17.7094C17.3654 93.7011 19.057 92.8289 19.7609 93.9509C20.0859 94.4749 20.4744 94.9248 20.9031 95.3101C22.9313 97.1541 25.9778 97.7331 28.4897 98.6286C30.1177 99.2077 31.7712 100.009 33.0891 101.133C34.0534 101.945 34.8304 102.939 35.293 104.15C35.4031 104.435 35.492 104.729 35.5703 105.035C35.7619 105.803 35.1776 106.341 34.5647 106.404Z" fill="#494949"/>
<path d="M27.5317 67.8641C27.2629 66.9188 26.994 65.9735 26.7262 65.0272C26.5674 64.4672 25.9302 64.0671 25.3564 64.2534C24.7859 64.4386 24.4133 65.025 24.5826 65.6231C24.8515 66.5684 25.1193 67.5137 25.3882 68.46C25.547 69.02 26.1842 69.4201 26.7579 69.2338C27.3285 69.0475 27.7011 68.4621 27.5317 67.8641Z" fill="#494949"/>
<path d="M28.7364 72.5016C28.3617 71.117 26.2202 71.7151 26.5939 73.0975C29.4954 83.8386 31.9459 94.6961 33.937 105.644C34.1932 107.055 36.3346 106.445 36.0795 105.048C34.0884 94.1002 31.6389 83.2427 28.7364 72.5016Z" fill="#494949"/>
<path d="M36.017 105.165C35.999 105.409 35.9704 105.632 35.9323 105.854V105.865C35.5502 107.987 34.082 109.597 32.3862 110.935C30.6904 112.263 28.4113 113.493 27.7349 115.683C27.7349 115.693 27.7244 115.715 27.7148 115.725C27.3285 116.831 25.4326 116.733 25.5406 115.439C25.549 115.334 25.5586 115.228 25.5681 115.122C25.9598 110.098 25.9809 105.058 25.6305 100.025C25.6157 99.7602 25.5914 99.4967 25.5766 99.232C25.4707 97.804 27.6937 97.7818 27.7995 99.1992C27.8387 99.7274 27.8789 100.257 27.9075 100.786C28.1298 104.392 28.152 107.991 28.0038 111.594C28.5892 111.056 29.2158 110.538 29.8658 110.052C31.2588 109.026 33.0827 107.792 33.6279 106.048C33.7189 105.772 33.7676 105.495 33.7845 105.199C33.7941 105.125 33.8036 105.051 33.8131 104.987V104.977C33.9931 104.286 34.7203 104.01 35.293 104.15C35.7185 104.259 36.0509 104.593 36.017 105.165Z" fill="#494949"/>
<path d="M39.578 126.91C39.3631 126.67 39.126 126.429 38.8793 126.211C36.992 124.545 34.6272 123.585 32.5736 122.154C30.3168 120.578 28.6315 118.317 27.7148 115.725C27.6714 115.62 27.627 115.515 27.5931 115.399C27.2607 114.408 26.0021 114.47 25.5671 115.122C25.3903 115.346 25.331 115.644 25.4527 116.003C26.217 118.321 27.4555 120.429 29.1756 122.183C30.4978 123.53 32.0782 124.491 33.6914 125.43C35.0665 130.364 36.1038 135.377 36.7189 140.46C36.7421 140.619 36.7548 140.766 36.7781 140.925C36.8988 141.95 38.3046 142.512 38.8709 141.445C38.8815 141.424 38.892 141.413 38.9016 141.392C40.2713 138.789 41.6284 136.079 41.7533 133.081L41.7512 132.954C41.7618 132.954 41.7618 132.944 41.7512 132.933C41.8147 130.677 41.0631 128.561 39.578 126.91ZM38.4909 137.174C37.9753 133.794 37.2799 130.448 36.4373 127.136C38.0748 128.34 39.3462 129.846 39.5166 132.067C39.6489 133.854 39.1768 135.544 38.4909 137.174Z" fill="#494949"/>
<path d="M60.2238 150.722C59.9772 149.825 59.3537 149.168 58.5852 148.693C58.1575 148.424 57.6886 148.218 57.2101 148.067C55.4974 147.51 53.5613 147.581 51.7819 147.555C49.7802 147.51 47.7478 147.529 45.763 147.146C42.7895 146.554 39.3535 144.658 38.9025 141.393C38.8687 141.255 38.856 141.119 38.8433 140.981C38.7618 139.765 37.1401 139.599 36.7188 140.462C36.6468 140.612 36.6076 140.803 36.6214 141.014C36.8172 144.24 39.0571 146.769 41.8728 148.178C43.8777 149.175 46.053 149.514 48.2464 149.661C48.258 149.725 48.2379 149.788 48.2601 149.862C49.2065 153.712 49.6987 157.644 49.7463 161.612C49.7516 161.962 49.9252 162.245 50.1824 162.442C50.6969 162.837 51.5226 162.835 51.8401 162.132C51.9523 161.876 52.0762 161.621 52.2096 161.365C52.8881 159.999 53.7593 158.737 54.822 157.62C56.032 156.364 57.533 155.548 58.8403 154.407C59.4574 153.868 59.9549 153.194 60.1772 152.449C60.1878 152.449 60.1878 152.439 60.1878 152.439C60.3582 151.895 60.3921 151.322 60.2238 150.722ZM56.5157 153.392C54.6717 154.668 53.0839 156.163 51.7872 157.907C51.567 155.158 51.1351 152.434 50.5021 149.743C51.2113 149.764 51.911 149.775 52.6097 149.786C54.135 149.827 56.0277 149.714 57.3954 150.551C58.9228 151.503 57.5012 152.71 56.5157 153.392Z" fill="#494949"/>
<path d="M80.4918 188.312C80.4918 188.323 80.4918 188.323 80.4812 188.323C80.1795 188.666 79.7053 188.853 79.1835 188.617C79.1623 188.617 79.1517 188.606 79.1305 188.597C79.013 188.535 78.8955 188.473 78.778 188.412C77.6687 187.845 76.5593 187.259 75.4912 186.608C74.7545 186.163 74.0484 185.687 73.3847 185.167C72.1314 184.19 71.0136 183.064 70.136 181.69C69.2257 180.274 68.7049 178.683 68.5842 177.001C68.5027 175.785 68.5387 174.651 68.2698 173.608C68.2349 173.429 68.1798 173.238 68.1142 173.07C67.8835 172.47 67.5257 171.914 66.9668 171.383C64.1224 168.725 59.8279 169 56.3283 167.856C53.6587 166.984 51.0166 165.192 50.1824 162.441C50.0829 162.146 50.0141 161.829 49.9675 161.502C49.7675 160.108 51.9068 159.494 52.1079 160.909C52.1312 161.068 52.1545 161.215 52.2095 161.363C52.9908 164.792 56.8703 165.857 59.9602 166.436C62.8374 166.997 65.905 167.544 68.1777 169.491C68.3916 169.668 68.5959 169.855 68.7896 170.065C69.4882 170.785 70.009 171.603 70.3287 172.52C70.4938 172.941 70.5955 173.373 70.6653 173.827C70.9712 175.897 70.6187 177.872 71.6117 179.815C73.083 182.673 75.8829 184.4 78.6775 185.851C79.1686 186.119 79.6587 186.365 80.1499 186.613C80.1711 186.624 80.1817 186.633 80.2028 186.644C80.5553 186.829 80.7289 187.113 80.7649 187.408C80.8115 187.725 80.6898 188.055 80.4918 188.312Z" fill="#494949"/>
<path d="M41.2727 81.9078C40.6714 81.9428 40.1686 82.4149 40.1771 83.0363L40.2385 87.1699C40.247 87.7521 40.7667 88.2994 41.3669 88.2655C41.9682 88.2306 42.472 87.7584 42.4625 87.1371L42.4011 83.0034C42.3926 82.4202 41.8729 81.8729 41.2727 81.9078Z" fill="#494949"/>
<path d="M39.8203 91.9672C39.7282 105.584 39.6351 119.201 39.543 132.819C39.5335 134.253 41.7564 134.218 41.767 132.786C41.8591 119.169 41.9512 105.552 42.0443 91.9344C42.0528 90.5011 39.8299 90.536 39.8203 91.9672Z" fill="#494949"/>
<path d="M59.903 102.059L58.4983 151.547C58.4581 152.98 60.6811 152.943 60.7223 151.514L62.127 102.027C62.1673 100.593 59.9433 100.63 59.903 102.059Z" fill="#494949"/>
<path d="M71.1353 130.493C71.1384 129.912 70.7679 129.314 70.1318 129.282C69.5739 129.253 68.9239 129.664 68.9208 130.284C68.9123 131.88 68.9028 133.475 68.8943 135.071C68.8911 135.652 69.2606 136.25 69.8968 136.282C70.4546 136.311 71.1046 135.9 71.1077 135.28C71.1173 133.683 71.1257 132.088 71.1353 130.493Z" fill="#494949"/>
<path d="M70.9818 140.039C70.7606 150.862 70.5393 161.695 70.3287 172.517C70.3213 172.74 70.3244 172.962 70.317 173.184C70.3033 174.38 68.779 174.435 68.2698 173.607C68.1724 173.459 68.1163 173.281 68.1142 173.069C68.1036 173.037 68.1025 173.016 68.1025 172.984C68.1279 171.82 68.1533 170.654 68.1777 169.49C68.3704 159.599 68.5736 149.708 68.7662 139.828C68.7864 138.389 71.003 138.61 70.9818 140.039Z" fill="#494949"/>
<path d="M80.1795 128.517C80.2484 127.085 78.0243 127.125 77.9555 128.55C77.0103 148.157 77.2865 167.81 78.7854 187.383C78.8945 188.805 81.1185 188.78 81.0095 187.35C79.5116 167.777 79.2343 148.124 80.1795 128.517Z" fill="#494949"/>
<path d="M80.0061 115.564C79.3783 115.6 78.9338 116.071 78.9105 116.693C78.8618 117.987 78.8131 119.282 78.7633 120.577C78.7411 121.16 79.3138 121.705 79.8917 121.672C80.5195 121.636 80.964 121.166 80.9873 120.544C81.036 119.249 81.0847 117.955 81.1345 116.66C81.1556 116.077 80.584 115.53 80.0061 115.564Z" fill="#494949"/>
<path d="M79.3815 194.151C77.7037 195.922 75.2966 197.09 74.3249 199.434C73.8951 200.446 72.1421 199.995 72.231 198.914C72.6185 194.335 72.9953 189.745 73.3828 185.166C73.3912 185.028 73.4103 184.891 73.4187 184.753C73.4632 184.149 73.858 183.635 74.5133 183.626C75.0637 183.617 75.6851 184.128 75.6406 184.72C75.5867 185.346 75.5327 185.982 75.4882 186.607C75.2342 189.501 74.9917 192.384 74.7589 195.288C75.4173 194.696 76.1075 194.124 76.7765 193.543C77.8435 192.638 79.1455 191.254 79.1667 189.781C79.173 189.517 79.1381 189.263 79.0386 189C78.9835 188.821 78.9063 188.632 78.7972 188.453C78.7866 188.442 78.7761 188.421 78.775 188.41C78.558 188.033 78.595 187.672 78.7813 187.394V187.384C79.029 186.978 79.5446 186.726 80.023 186.836C80.2887 186.885 80.5449 187.041 80.7185 187.334C80.7291 187.355 80.7513 187.387 80.7619 187.407C80.8381 187.533 80.9027 187.648 80.9577 187.774V187.785C81.1663 188.247 81.289 188.722 81.3388 189.198C81.5262 190.985 80.6327 192.83 79.3815 194.151Z" fill="#494949"/>
<path d="M121.089 137.986C121.006 138.072 120.922 138.158 120.839 138.254C119.559 139.671 118.917 141.406 118.446 143.244C118.336 143.669 118.236 144.094 118.147 144.529C117.682 146.675 117.312 148.882 116.377 150.791C114.137 155.387 108.938 156.797 104.56 158.556C100.529 160.173 96.3118 162.744 95.6872 167.093C95.6682 167.22 95.6491 167.359 95.6406 167.497C95.5962 168.048 95.6046 168.63 95.6766 169.243C95.9561 171.663 96.479 174.069 95.0711 176.26C94.0253 177.885 92.3475 178.936 90.6993 179.861C88.6521 181.003 86.6991 182.1 85.0192 183.767C83.4546 185.346 82.2426 187.174 81.3407 189.199C81.2486 189.412 81.1565 189.626 81.0644 189.849C80.6759 190.807 79.5496 190.517 79.1686 189.781C79.0384 189.55 78.9812 189.286 79.0405 189C79.0606 188.936 79.0807 188.861 79.1114 188.787C79.1315 188.734 79.1622 188.67 79.1834 188.617C79.2342 188.499 79.2755 188.383 79.3369 188.265C79.5412 187.775 79.7677 187.306 80.0249 186.836C80.0662 186.761 80.1075 186.687 80.1488 186.612C80.3647 186.196 80.6135 185.8 80.8612 185.405C81.6477 184.197 82.5527 183.072 83.5859 182.062C85.4013 180.288 87.5332 179.093 89.7382 177.854C91.67 176.766 93.7046 175.444 93.8273 173.009C93.9533 170.805 93.2028 168.73 93.4674 166.556V166.545C93.5151 166.173 93.5839 165.802 93.694 165.43C94.1174 164.006 94.8192 162.788 95.7147 161.727C97.8054 159.229 100.947 157.616 103.958 156.406C106.41 155.428 108.992 154.628 111.236 153.207C113.376 151.863 114.544 149.941 115.229 147.57C115.622 146.208 115.897 144.786 116.216 143.384C116.714 141.27 117.329 139.196 118.637 137.452C118.885 137.098 119.167 136.766 119.49 136.444C119.625 136.304 119.772 136.218 119.919 136.173C120.888 135.83 121.966 137.116 121.089 137.986Z" fill="#494949"/>
<path d="M118.636 137.451C118.579 139.389 118.523 141.317 118.446 143.244C118.439 143.445 118.431 143.636 118.423 143.837C118.406 144.123 118.314 144.358 118.148 144.529C117.554 145.215 116.154 145.014 116.201 143.87C116.209 143.711 116.217 143.542 116.215 143.383C116.798 128.394 116.862 113.392 116.439 98.3968C116.397 96.9678 118.62 96.9349 118.662 98.364C119.035 111.392 119.026 124.435 118.636 137.451Z" fill="#494949"/>
<path d="M95.7307 157.83C95.7286 159.121 95.7159 160.425 95.7138 161.727C95.6979 163.516 95.6926 165.306 95.6873 167.094L95.6883 167.19C95.6894 167.296 95.6704 167.401 95.6397 167.498C95.338 168.613 93.4527 168.536 93.4654 167.223C93.4622 167 93.4696 166.778 93.4665 166.556V166.545C93.476 163.645 93.4866 160.754 93.5077 157.863C93.5183 156.423 95.7413 156.39 95.7307 157.83Z" fill="#494949"/>
<path d="M93.5861 100.332C93.5237 98.9028 91.2997 98.9314 91.3621 100.365C91.9295 113.308 93.2061 139.08 93.7735 152.023C93.836 153.452 96.06 153.423 95.9975 151.99C95.4301 139.047 94.1535 113.275 93.5861 100.332Z" fill="#494949"/>
<path d="M68.7791 40.6467C65.9994 39.4907 63.6653 42.0916 63.0121 44.7718C62.6247 46.3618 62.5273 48.0978 62.4935 49.7343C62.4575 51.4502 62.6014 53.2169 63.1582 54.8386C63.9818 57.2405 66.5043 60.8565 69.2671 59.1035C73.9787 56.1121 74.1036 42.8622 68.7791 40.6467Z" fill="#494949"/>
<path d="M89.5836 60.0954C91.9304 60.2171 93.6188 58.5065 94.3767 56.7789C96.1826 52.6633 96.2313 48.0057 94.7737 43.8837C94.1883 42.2282 93.3478 40.1333 91.3397 39.3881C89.2449 38.6111 87.4655 40.0274 86.6239 41.5835C84.7228 45.0947 82.5083 59.7302 89.5836 60.0954Z" fill="#494949"/>
<path d="M51.8909 34.938C51.3468 34.829 50.7974 35.1306 50.6577 35.6832C50.2777 37.1842 50.0395 38.7159 49.9199 40.2604C49.8786 40.7939 50.4386 41.2935 50.9541 41.2639C51.5469 41.23 51.9131 40.7992 51.9576 40.2307C51.9724 40.0381 51.9893 39.8465 52.0084 39.6538C52.0169 39.5723 52.0232 39.4887 52.0338 39.4072C52.001 39.6443 52.0391 39.368 52.0423 39.3373C52.0857 38.9816 52.1365 38.627 52.1958 38.2735C52.3133 37.5664 52.4615 36.8656 52.6372 36.1712C52.7674 35.6536 52.4276 35.046 51.8909 34.938Z" fill="#494949"/>
<path d="M62.6765 13.6686C57.1933 18.2584 53.3285 24.6404 51.7608 31.6141C51.4739 32.8907 53.4502 33.3861 53.7392 32.1021C55.236 25.4449 58.9081 19.4662 64.1384 15.0881C65.143 14.2465 63.6737 12.8344 62.6765 13.6686Z" fill="#494949"/>
<path d="M81.2879 71.9045C80.9777 71.5563 80.3998 71.5341 80.0145 71.7511C79.6652 71.9479 79.4206 72.2761 79.2925 72.6455C79.2248 72.7133 79.1528 72.7789 79.1073 72.871C78.3981 74.2842 78.6796 76.1059 79.8642 77.1825C80.2654 77.5477 80.9809 77.6101 81.3609 77.1602C82.646 75.6412 82.6132 73.3865 81.2879 71.9045Z" fill="#494949"/>
</svg>
