<svg width="390" height="78" viewBox="0 0 390 78" fill="none" xmlns="http://www.w3.org/2000/svg">
<g clip-path="url(#clip0_139_7838)">
<g style="mix-blend-mode:color-dodge">
<path d="M-587.312 222.055C-536.705 185.651 -480.862 162.807 -419.199 184.983C-364.295 204.739 -321.615 250.636 -279.414 288.876C-231.853 331.977 -171.775 408.499 -98.7644 393.457C-57.6697 384.987 -21.5189 353.527 9.18742 326.74C76.9624 267.597 136.372 199.086 197.305 133.183C254.337 71.473 317.544 27.0787 370.737 112.968C406.554 170.776 434.361 262.214 515.591 265.427C587.684 268.285 641.858 210.706 706.838 189.468C806.508 156.903 907.618 252.618 977.228 308.841" stroke="#666666" stroke-miterlimit="10"/>
<path d="M-587.312 201.986C-535.369 161.513 -477.503 134.643 -411.898 157.967C-356.535 177.64 -310.684 222.493 -269.756 262.819C-227.201 304.773 -170.086 387.178 -100.412 373.117C-61.4246 365.252 -27.1303 333.729 1.61514 308.152C67.3458 249.635 126.047 182.918 185.436 118.183C239.818 58.9141 303.692 4.88149 357.637 90.374C392.933 146.305 419.738 235.574 499.445 236.679C570.912 237.66 630.51 185.776 697.242 168.002C801.105 140.318 902.611 231.067 977.207 289.043" stroke="#666666" stroke-miterlimit="10"/>
<path d="M-587.312 179.622C-530.008 134.539 -468.867 110.297 -398.818 141.59C-340.889 167.48 -290.157 216.464 -245.329 259.836C-205.11 298.765 -155.275 364.459 -91.8597 343.993C-53.1639 331.497 -19.5163 298.118 9.35427 271.289C67.2206 217.528 120.998 159.302 175.59 102.265C227.615 47.8781 290.738 -5.02789 346.665 70.8055C386.445 124.755 411.769 211.04 491.184 214.983C561.922 218.488 630.322 171.819 698.514 159.302C801.647 140.359 897.563 211.457 977.228 266.241" stroke="#666666" stroke-miterlimit="10"/>
<path d="M-587.312 154.775C-525.69 107.752 -462.901 87.0778 -390.912 124.212C-335.758 152.647 -284.859 198.439 -239.488 240.226C-197.204 279.175 -145.283 346.288 -81.3878 316.581C-48.0323 301.08 -20.5801 271.561 5.62033 246.589C60.7331 194.016 112.863 138.273 166.682 84.4075C222.358 28.6851 285.44 -14.5201 343.202 59.5608C382.961 110.568 411.603 190.866 486.991 194.204C556.352 197.292 625.253 164.059 692.945 153.002C797.434 135.937 890.199 189.218 977.228 240.56" stroke="#666666" stroke-miterlimit="10"/>
<path d="M-587.312 127.905C-516.241 76.626 -448.445 65.0267 -372.764 112.738C-318.381 147.014 -268.108 193.453 -219.441 235.323C-178.805 270.288 -133.1 325.176 -76.2354 293.382C-45.7794 276.359 -20.4342 246.005 3.82625 221.45C55.4762 169.149 105.77 115.575 158.922 64.7764C213.993 12.1415 277.033 -25.8482 335.65 40.6599C379.415 90.3115 409.725 169.504 484.926 176.68C551.199 183.001 623.417 157.091 688.606 146.994C792.782 130.867 884.442 167.689 977.186 212.646" stroke="#666666" stroke-miterlimit="10"/>
<path d="M-587.312 99.5116C-510.316 47.7112 -439.517 42.162 -362.355 96.3615C-304.134 137.251 -251.816 188.926 -196.453 233.738C-158.383 264.53 -116.266 306.755 -68.6839 271.373C-37.2267 247.986 -11.5477 212.751 14.5693 184.044C58.7305 135.54 103.997 87.6828 152.581 43.5805C212.116 -10.4729 276.678 -36.008 336.631 29.144C380.521 76.8346 414.147 151.27 486.261 159.344C554.516 166.979 628.32 149.059 695.928 139.775C795.348 126.132 883.837 148.35 977.207 182.918" stroke="#666666" stroke-miterlimit="10"/>
<path d="M-587.312 70.0335C-499.532 15.1456 -424.914 20.987 -344.331 85.3254C-283.19 134.142 -231.081 190.95 -167.353 237.013C-123.63 268.598 -92.1099 286.435 -52.2043 242.416C15.6124 167.605 70.5374 82.3421 149.994 17.8368C208.319 -29.4991 272.485 -47.1484 330.602 7.9482C379.707 54.4913 412.75 125.944 483.633 142.717C549.071 158.176 631.198 142.925 696.992 133.955C794.096 120.707 881.73 128.489 977.228 152.021" stroke="#666666" stroke-miterlimit="10"/>
<path d="M-587.312 39.9714C-489.018 -17.3783 -408.977 1.25148 -326.099 74.6649C-266.731 127.258 -217.355 188.154 -149.976 231.359C-100.517 263.091 -74.483 268.702 -40.6477 218.175C12.9632 138.127 66.9286 56.3063 145.029 -2.73315C208.173 -50.4863 272.152 -61.2093 333.856 -6.15452C385.235 39.7002 421.803 113.468 494.459 129.699C558.897 144.094 634.098 137.251 699.057 128.405C793.366 115.554 881.96 109.755 977.228 120.374" stroke="#666666" stroke-miterlimit="10"/>
<path d="M-587.312 9.805C-480.173 -49.3388 -396.357 -20.1946 -311.435 60.7292C-251.336 117.995 -201.793 187.946 -127.802 228.543C-72.8768 258.689 -53.602 243.021 -27.4015 191.346C14.2773 109.171 66.9912 26.1191 144.195 -27.4128C209.55 -72.7459 275.656 -74.1437 337.048 -22.0513C390.596 23.4071 429.605 95.2558 501.343 115.408C655.209 158.635 822.654 94.0249 977.228 88.6634" stroke="#666666" stroke-miterlimit="10"/>
<path d="M-587.312 -20.0068C-534.014 -48.4 -483.907 -65.2565 -424.268 -44.5822C-374.933 -27.4754 -334.527 8.42813 -298.334 44.9992C-238.632 105.374 -187.587 186.611 -108.047 222.493C-48.3869 249.405 -34.2645 213.147 -14.1343 162.557C18.6788 80.0265 68.2219 -4.52719 145.634 -52.8436C314.352 -158.176 375.243 54.9504 509.479 101.16C666.244 155.13 823.926 87.0362 977.228 57.3495" stroke="#666666" stroke-miterlimit="10"/>
<path d="M-587.312 -48.9841C-531.719 -78.3995 -480.486 -94.7971 -419.762 -72.4539C-368.821 -53.7198 -327.643 -15.438 -290.741 23.3445C-232.708 84.3241 -172.693 189.886 -86.1231 214.169C-25.5241 231.172 -15.9701 174.469 -0.616925 128.823C26.2511 48.9213 72.5608 -39.179 150.036 -81.4454C310.868 -169.191 391.869 28.101 513.296 83.8651C672.606 157.028 826.868 82.0084 977.207 26.9745" stroke="#666666" stroke-miterlimit="10"/>
<path d="M-587.312 -76.6263C-531.177 -107.168 -480.611 -123.754 -418.823 -102.12C-367.59 -84.1784 -325.724 -44.1442 -289.302 -5.13224C-230.205 58.1839 -166.852 178.453 -74.9629 196.395C-12.5073 208.599 -3.74595 146.201 9.89666 99.3447C33.3227 18.9634 75.5022 -70.0131 156.461 -107.398C317.523 -181.771 404.385 7.63529 523.184 68.8861C585.035 100.763 665.117 117.098 734.019 106C821.36 91.9387 901.234 40.18 977.228 -1.81519" stroke="#666666" stroke-miterlimit="10"/>
<path d="M-587.312 -102.495C-527.526 -137.064 -469.743 -156.987 -403.554 -127.112C-353.885 -104.686 -314.48 -63.4624 -278.872 -23.4491C-225.511 36.5083 -158.258 162.828 -68.4963 172.299C-0.929915 179.434 7.60196 105.645 22.079 55.8265C44.462 -21.1752 84.764 -103.726 165.89 -133.434C325.742 -191.993 418.173 -16.3977 533.51 52.2174C591.793 86.8901 667.975 110.631 736.146 102.14C827.472 90.7495 906.512 24.6587 977.186 -28.6437" stroke="#666666" stroke-miterlimit="10"/>
<path d="M-587.312 -126.09C-530.864 -162.056 -475.292 -187.091 -408.602 -160.158C-355.158 -138.566 -312.603 -92.7318 -275.889 -49.9022C-223.404 11.3278 -157.403 137.042 -64.1573 139.254C2.32436 140.818 14.632 65.9654 30.3189 15.9801C54.5793 -61.2511 92.9413 -136.167 178.03 -158.009C340.97 -199.858 431.441 -39.3043 548.029 37.7183C605.102 75.4368 681.221 106.542 750.749 96.5074C841.678 83.3643 914.731 7.78127 977.207 -52.8437" stroke="#666666" stroke-miterlimit="10"/>
<path d="M-587.312 -146.931C-535.495 -184.504 -481.675 -215.985 -415.778 -193.913C-364.42 -176.722 -323.972 -134.623 -289.406 -94.6929C-232.792 -29.3114 -175.843 86.9943 -78.3839 94.4211C-4.28833 100.054 14.9657 28.0383 36.2849 -28.9359C65.3641 -106.668 105.896 -172.487 194.948 -184.525C352.818 -205.867 443.79 -70.1175 553.473 15.3333C608.461 58.163 682.911 99.1777 754.858 92.1681C850.294 82.8636 920.53 -5.88335 977.207 -73.9143" stroke="#666666" stroke-miterlimit="10"/>
<path d="M-587.312 -163.371C-535.745 -199.357 -482.572 -228.981 -417.989 -207.953C-367.695 -191.576 -327.664 -151.333 -293.516 -112.613C-238.507 -50.2776 -180.286 69.3869 -85.6225 72.6622C-12.4238 75.1865 12.6294 10.3474 38.8716 -46.6476C72.5192 -119.685 118.057 -186.548 204.419 -198.21C356.761 -218.78 451.925 -91.9599 560.044 -10.8484C613.092 28.9354 687.917 69.4077 756.047 68.0725C851.295 66.1949 921.844 -24.4087 977.207 -90.5412" stroke="#666666" stroke-miterlimit="10"/>
<path d="M-587.312 -174.615C-536.559 -209.35 -484.158 -238.161 -420.847 -219.009C-371.929 -204.218 -332.483 -166.542 -298.877 -129.658C-244.744 -70.2217 -186.774 48.191 -95.1765 48.7543C-23.3547 49.1924 7.22648 -7.96947 38.5794 -63.6502C76.8789 -131.66 127.152 -196.917 210.447 -208.349C357.282 -228.481 456.473 -114.741 564.654 -39.033C617.18 -2.27414 691.192 38.7406 756.193 44.5402C850.961 52.9893 922.658 -38.5114 977.186 -102.266" stroke="#666666" stroke-miterlimit="10"/>
<path d="M-587.312 -181.583C-538.624 -214.858 -486.577 -243.627 -425.77 -228.189C-373.932 -215.046 -332.754 -175.846 -297.458 -137.898C-243.806 -80.2146 -190.007 26.9326 -100.371 22.9479C-32.554 19.9438 2.01151 -31.5436 37.4322 -82.2174C80.9258 -144.47 133.431 -202.841 213.076 -214.149C357.7 -234.698 459.018 -136.375 571.538 -66.2371C623.522 -33.8176 689.482 4.63113 749.372 20.1316C846.455 45.2494 920.384 -45.7298 977.207 -109.985" stroke="#666666" stroke-miterlimit="10"/>
<path d="M-587.312 -185.171C-539.959 -217.946 -489.018 -247.34 -429.212 -235.178C-379.418 -225.039 -338.949 -190.157 -304.259 -155.13C-249.855 -100.221 -199.207 -1.60663 -112.365 -5.4661C-46.4887 -8.38678 -6.87505 -51.738 33.427 -98.4481C81.7184 -154.4 137.457 -207.556 214.035 -218.697C352.547 -238.849 458.684 -160.241 572.518 -97.697C629.008 -66.6544 688.418 -28.7064 747.724 -3.58853C843.201 36.8629 918.256 -50.6741 977.186 -114.533" stroke="#666666" stroke-miterlimit="10"/>
</g>
</g>
<defs>
<clipPath id="clip0_139_7838">
<rect width="1566" height="1046" fill="white" transform="translate(-588 -485)"/>
</clipPath>
</defs>
</svg>
