<svg width="847" height="208" viewBox="0 0 847 208" fill="none" xmlns="http://www.w3.org/2000/svg">
<g clip-path="url(#clip0_172_3326)">
<path d="M-76.7148 315.135C57.8875 278.036 172.203 314.68 299.759 356.63C363.025 377.434 426.121 393.009 492.059 375.956C592.376 350.017 657.764 271.083 742.075 217.897C878.988 131.554 940.001 323.832 1059.45 348.312C1111.16 358.922 1140.41 325.935 1186.11 310C1244 289.821 1297.44 326.162 1343.94 357.217" stroke="url(#paint0_linear_172_3326)" stroke-miterlimit="10"/>
<path d="M-76.7148 288.969C53.8907 246.773 154.17 294.198 274.111 341.207C338.874 366.577 404.376 387.154 473.382 366.179C575.688 335.087 642.364 250.392 726.94 191.485C870.73 91.3483 917.933 305.32 1041.44 330.482C1094 341.188 1126.45 304.581 1171.45 286.714C1235.02 261.476 1293.38 304.43 1343.94 339.729" stroke="url(#paint1_linear_172_3326)" stroke-miterlimit="10"/>
<path d="M-76.7148 263.276C-18.2028 240.975 38.9075 235.84 99.4275 253.84C155.307 270.457 203.287 304.013 256.022 327.754C318.303 355.796 382.289 380.39 450.443 358.051C558.697 322.562 623.858 226.196 712.203 162.268C855.254 58.7398 896.87 279.419 1014.31 309.186C1073.77 324.249 1108.23 280.575 1158.78 260.605C1227.11 233.605 1290.94 284.005 1343.94 322.183" stroke="url(#paint2_linear_172_3326)" stroke-miterlimit="10"/>
<path d="M-76.7148 238.474C-24.0559 214.62 28.4136 207.192 84.0275 225.836C138.808 244.196 183.303 282.849 233.765 309.602C292.466 340.733 352.872 371.977 420.42 352.044C533.674 318.659 604.764 210.432 692.655 140.403C842.525 20.9779 867.396 261.135 990.178 288.779C1053.18 302.971 1092.41 252.325 1146.51 232.582C1219.28 206.036 1289.08 264.034 1343.92 304.619" stroke="url(#paint3_linear_172_3326)" stroke-miterlimit="10"/>
<path d="M-76.7148 214.923C44.9879 149.554 118.085 226.878 217.209 289.367C273.505 324.855 334.12 365.914 403.107 343.063C514.827 306.059 588.322 194.801 673.012 120.811C727.679 73.0641 780.016 61.9799 826.841 122.384C867.453 174.754 893.536 250.184 965.8 265.36C1028.73 278.567 1073.16 226.727 1127.15 205.601C1206.59 174.489 1285.24 242.51 1343.94 287.093" stroke="url(#paint4_linear_172_3326)" stroke-miterlimit="10"/>
<path d="M-76.7148 193.02C41.1616 118.917 114.619 195.862 207.587 265.702C257.177 302.952 313.321 354.546 380.319 337.057C421.102 326.409 457.262 296.15 488.403 269.434C548.26 218.106 597.945 157.55 654.771 103.323C709.248 51.3315 762.949 30.8684 809.66 99.4577C844.476 150.578 871.184 229.55 941.175 240.71C1007.72 251.321 1056.42 194.213 1114.78 174.47C1198.96 145.973 1283.82 222.558 1343.94 269.51" stroke="url(#paint5_linear_172_3326)" stroke-miterlimit="10"/>
<path d="M-76.7148 173.163C-30.7614 140.1 19.9465 119.352 75.9393 139.493C125.795 157.436 164.55 199.121 202.87 233.851C246.058 272.996 300.611 342.495 366.908 328.834C404.224 321.141 437.051 292.569 464.934 268.24C526.476 214.525 580.423 152.302 635.753 92.4471C687.541 36.4009 744.935 -3.91899 793.238 74.0872C825.761 126.59 851.011 209.636 924.771 212.554C990.235 215.15 1039.43 162.855 1098.43 143.567C1188.94 113.99 1280.75 200.921 1343.96 251.984" stroke="url(#paint6_linear_172_3326)" stroke-miterlimit="10"/>
<path d="M-76.7148 154.935C-29.5491 118.178 22.9962 93.7734 82.569 114.957C132.841 132.824 174.476 173.561 211.64 210.186C250.282 248.289 302.145 323.131 365.412 310.36C400.815 303.217 431.955 274.588 458.058 251.358C517.744 198.211 571.047 137.618 624.975 78.824C674.357 24.9946 732.358 -24.079 781.342 53.5672C813.392 104.365 837.732 185.441 910.11 186.445C975.006 187.335 1029.12 140.213 1089.72 124.07C1184.03 98.9271 1276.2 181.348 1343.94 234.003" stroke="url(#paint7_linear_172_3326)" stroke-miterlimit="10"/>
<path d="M-76.7148 134.624C-24.681 93.6787 30.8382 71.6619 94.4457 100.083C147.048 123.597 193.115 168.085 233.821 207.476C270.342 242.832 315.594 302.497 373.178 283.91C408.316 272.56 438.869 242.245 465.085 217.878C517.63 169.051 566.463 116.169 616.034 64.3672C663.276 14.9715 720.595 -33.0789 771.378 35.7946C807.501 84.7924 830.497 163.159 902.609 166.74C966.842 169.923 1028.95 127.538 1090.87 116.169C1184.52 98.965 1271.62 163.538 1343.96 213.293" stroke="url(#paint8_linear_172_3326)" stroke-miterlimit="10"/>
<path d="M-76.7148 112.058C-20.76 69.3504 36.2557 50.5736 101.625 84.2998C151.708 110.125 197.926 151.714 239.125 189.666C277.521 225.041 324.668 285.994 382.687 259.013C412.975 244.935 437.903 218.125 461.695 195.445C511.739 147.698 559.076 97.0704 607.946 48.1484C658.503 -2.45995 715.783 -41.6999 768.234 25.5821C804.338 71.9083 830.345 144.837 898.802 147.868C961.784 150.672 1024.35 120.489 1085.82 110.447C1180.7 94.9483 1264.93 143.34 1343.96 189.969" stroke="url(#paint9_linear_172_3326)" stroke-miterlimit="10"/>
<path d="M-76.7148 87.6536C-12.1792 41.081 49.3825 30.5463 118.104 73.8788C167.486 105.009 213.137 147.186 257.329 185.213C294.228 216.969 335.73 266.819 387.366 237.944C415.021 222.483 438.036 194.914 460.065 172.613C506.966 125.112 552.635 76.4557 600.9 30.3189C650.907 -17.4852 708.15 -51.9882 761.377 8.41584C801.117 53.5105 828.64 125.435 896.926 131.952C957.105 137.693 1022.68 114.161 1081.88 104.99C1176.47 90.3441 1259.7 123.786 1343.92 164.618" stroke="url(#paint10_linear_172_3326)" stroke-miterlimit="10"/>
<path d="M-76.7148 61.8662C-6.79967 14.82 57.4897 9.78002 127.556 59.0052C180.424 96.1419 227.93 143.074 278.203 183.773C312.772 211.74 351.016 250.089 394.223 217.954C422.788 196.714 446.105 164.712 469.821 138.641C509.921 94.5882 551.025 51.1231 595.141 11.0684C649.202 -38.0241 707.828 -61.2156 762.267 -2.04314C802.121 41.2704 832.656 108.874 898.139 116.207C960.117 123.142 1027.13 106.866 1088.53 98.4345C1178.8 86.043 1259.16 106.222 1343.94 137.618" stroke="url(#paint11_linear_172_3326)" stroke-miterlimit="10"/>
<path d="M-76.7148 35.0936C2.99338 -14.7568 70.7491 -9.45154 143.922 48.982C199.442 93.3188 246.759 144.912 304.627 186.748C344.329 215.434 372.951 231.634 409.187 191.655C470.768 123.71 520.642 46.2725 592.793 -12.3126C645.755 -55.3041 704.02 -71.3335 756.793 -21.2936C801.383 20.9778 831.387 85.8725 895.752 101.106C955.173 115.146 1029.75 101.296 1089.49 93.1482C1177.67 81.1167 1257.24 88.184 1343.96 109.557" stroke="url(#paint12_linear_172_3326)" stroke-miterlimit="10"/>
<path d="M-76.7148 7.79051C12.5402 -44.2957 85.2209 -27.3757 160.478 39.2999C214.387 87.0661 259.223 142.373 320.406 181.613C365.317 210.432 388.957 215.529 419.681 169.639C468.362 96.9377 517.365 22.6263 588.284 -30.9947C645.622 -74.3651 703.717 -84.104 759.748 -34.102C806.402 7.54418 839.608 74.5419 905.583 89.2829C964.095 102.357 1032.38 96.1419 1091.37 88.1082C1177 76.4367 1257.45 71.1693 1343.96 80.8135" stroke="url(#paint13_linear_172_3326)" stroke-miterlimit="10"/>
<path d="M-76.7148 -19.6073C20.5716 -73.323 96.6808 -46.8536 173.794 26.6431C228.366 78.6535 273.354 142.184 340.541 179.055C390.415 206.434 407.918 192.205 431.709 145.272C469.555 70.6388 517.422 -4.79051 587.527 -53.4094C646.872 -94.5819 706.9 -95.8513 762.646 -48.5399C811.27 -7.25365 846.692 58.0009 911.834 76.304C1051.55 115.563 1203.6 56.8831 1343.96 52.0136" stroke="url(#paint14_linear_172_3326)" stroke-miterlimit="10"/>
<path d="M-76.7148 -46.683C-28.3179 -72.4703 17.181 -87.7798 71.3363 -69.003C116.134 -53.4662 152.825 -20.8578 185.69 12.3569C239.902 67.1904 286.253 140.971 358.479 173.561C412.653 198.003 425.477 165.072 443.756 119.125C473.552 44.1694 518.54 -32.6241 588.834 -76.5061C742.037 -172.171 797.329 21.3947 919.221 63.3631C1061.57 112.38 1204.75 50.5357 1343.96 23.5737" stroke="url(#paint15_linear_172_3326)" stroke-miterlimit="10"/>
<path d="M-76.7148 -73.0009C-26.2342 -99.7166 20.2875 -114.609 75.4279 -94.3166C121.684 -77.3019 159.076 -42.5336 192.585 -7.3105C245.281 48.0725 299.778 143.946 378.387 166.001C433.414 181.443 442.089 129.944 456.031 88.4872C480.428 15.919 522.48 -64.0956 592.83 -102.483C738.874 -182.175 812.426 -2.99051 922.688 47.6557C1067.35 114.104 1207.42 45.9694 1343.94 -4.01365" stroke="url(#paint16_linear_172_3326)" stroke-miterlimit="10"/>
<path d="M-76.7148 -98.1061C-25.7417 -125.845 20.1738 -140.908 76.2802 -121.26C122.802 -104.965 160.819 -68.6051 193.892 -33.1736C247.554 24.3315 305.081 133.563 388.521 149.858C445.234 160.942 453.19 104.27 465.578 61.7146C486.85 -11.2895 525.15 -92.0998 598.665 -126.053C744.916 -193.601 823.791 -21.5779 931.666 34.0515C987.829 63.003 1060.55 77.8387 1123.11 67.7588C1202.42 54.9883 1274.95 7.97995 1343.96 -30.161" stroke="url(#paint17_linear_172_3326)" stroke-miterlimit="10"/>
<path d="M-76.7148 -121.601C-22.4269 -152.996 30.0426 -171.091 90.1458 -143.959C135.247 -123.59 171.028 -86.1503 203.363 -49.8093C251.816 4.64528 312.886 119.371 394.393 127.973C455.747 134.453 463.494 67.4367 476.64 22.1905C496.965 -47.7441 533.561 -122.719 607.226 -149.7C752.379 -202.885 836.312 -43.4051 941.042 18.9126C993.967 50.4031 1063.14 71.9651 1125.05 64.2536C1207.97 53.9083 1279.75 -6.11681 1343.92 -54.5272" stroke="url(#paint18_linear_172_3326)" stroke-miterlimit="10"/>
<path d="M-76.7148 -143.03C-25.4576 -175.695 25.0041 -198.432 85.5619 -173.971C134.091 -154.361 172.733 -112.733 206.071 -73.8346C253.73 -18.2242 313.662 95.9524 398.333 97.9608C458.702 99.3819 469.878 31.3989 484.122 -13.9989C506.152 -84.1419 540.986 -152.182 618.251 -172.02C766.207 -210.028 848.359 -64.2093 954.226 5.74418C1006.05 40.0009 1075.17 68.2514 1138.31 59.1377C1220.87 47.2009 1287.21 -21.4452 1343.94 -76.5062" stroke="url(#paint19_linear_172_3326)" stroke-miterlimit="10"/>
<path d="M-76.7148 -161.959C-29.6627 -196.083 19.2078 -224.674 79.0458 -204.628C125.681 -189.015 162.41 -150.78 193.797 -114.514C245.206 -55.1336 296.917 50.4977 385.415 57.243C452.697 62.3588 470.181 -3.04738 489.539 -54.7925C515.945 -125.39 552.749 -185.169 633.613 -196.102C776.966 -215.485 859.573 -92.1945 959.17 -14.5863C1009.1 24.3126 1076.71 61.563 1142.04 55.1967C1228.7 46.7462 1292.47 -33.8557 1343.94 -95.6429" stroke="url(#paint20_linear_172_3326)" stroke-miterlimit="10"/>
<path d="M-76.7148 -176.889C-29.8901 -209.573 18.3933 -236.478 77.0379 -217.379C122.707 -202.506 159.057 -165.956 190.065 -130.79C240.015 -74.1756 292.883 34.5063 378.842 37.481C445.31 39.7736 468.059 -19.1147 491.888 -70.8788C522.442 -137.213 563.792 -197.94 642.212 -208.531C780.546 -227.213 866.96 -112.032 965.137 -38.3652C1013.31 -2.23261 1081.25 34.5252 1143.12 33.3126C1229.61 31.6073 1293.67 -50.6809 1343.94 -110.744" stroke="url(#paint21_linear_172_3326)" stroke-miterlimit="10"/>
<path d="M-76.7148 -187.102C-30.6288 -218.649 16.9537 -244.815 74.4428 -227.422C118.862 -213.988 154.681 -179.769 185.197 -146.27C234.352 -92.2893 286.992 15.2558 370.166 15.7673C435.384 16.1652 463.153 -35.7504 491.623 -86.3209C526.401 -148.089 572.051 -207.356 647.687 -217.74C781.02 -236.024 871.089 -132.723 969.323 -63.963C1017.02 -30.5778 1084.23 6.67262 1143.25 11.94C1229.3 19.6136 1294.41 -63.4893 1343.92 -121.392" stroke="url(#paint22_linear_172_3326)" stroke-miterlimit="10"/>
<path d="M-76.7148 -193.43C-32.5041 -223.651 14.7564 -249.779 69.9725 -235.758C117.044 -223.822 154.435 -188.22 186.485 -153.754C235.204 -101.365 284.056 -4.05161 365.45 -7.67055C427.031 -10.399 458.418 -57.1609 490.581 -103.184C530.075 -159.723 577.753 -212.737 650.073 -223.007C781.399 -241.67 873.4 -152.371 975.574 -88.6704C1022.78 -59.2262 1082.67 -24.3063 1137.05 -10.2284C1225.21 12.5842 1292.34 -70.0452 1343.94 -128.403" stroke="url(#paint23_linear_172_3326)" stroke-miterlimit="10"/>
</g>
<defs>
<linearGradient id="paint0_linear_172_3326" x1="633.613" y1="195.75" x2="633.613" y2="383.234" gradientUnits="userSpaceOnUse">
<stop stop-color="#333333"/>
<stop offset="1" stop-color="#333333" stop-opacity="0"/>
</linearGradient>
<linearGradient id="paint1_linear_172_3326" x1="633.613" y1="164.972" x2="633.613" y2="374.84" gradientUnits="userSpaceOnUse">
<stop stop-color="#333333"/>
<stop offset="1" stop-color="#333333" stop-opacity="0"/>
</linearGradient>
<linearGradient id="paint2_linear_172_3326" x1="633.613" y1="134.832" x2="633.613" y2="366.738" gradientUnits="userSpaceOnUse">
<stop stop-color="#333333"/>
<stop offset="1" stop-color="#333333" stop-opacity="0"/>
</linearGradient>
<linearGradient id="paint3_linear_172_3326" x1="633.603" y1="107.314" x2="633.603" y2="358.315" gradientUnits="userSpaceOnUse">
<stop stop-color="#333333"/>
<stop offset="1" stop-color="#333333" stop-opacity="0"/>
</linearGradient>
<linearGradient id="paint4_linear_172_3326" x1="633.613" y1="80.9628" x2="633.613" y2="349.661" gradientUnits="userSpaceOnUse">
<stop stop-color="#333333"/>
<stop offset="1" stop-color="#333333" stop-opacity="0"/>
</linearGradient>
<linearGradient id="paint5_linear_172_3326" x1="633.613" y1="55.7195" x2="633.613" y2="340.57" gradientUnits="userSpaceOnUse">
<stop stop-color="#333333"/>
<stop offset="1" stop-color="#333333" stop-opacity="0"/>
</linearGradient>
<linearGradient id="paint6_linear_172_3326" x1="633.622" y1="30.7094" x2="633.622" y2="330.586" gradientUnits="userSpaceOnUse">
<stop stop-color="#333333"/>
<stop offset="1" stop-color="#333333" stop-opacity="0"/>
</linearGradient>
<linearGradient id="paint7_linear_172_3326" x1="633.613" y1="13.2429" x2="633.613" y2="311.809" gradientUnits="userSpaceOnUse">
<stop stop-color="#333333"/>
<stop offset="1" stop-color="#333333" stop-opacity="0"/>
</linearGradient>
<linearGradient id="paint8_linear_172_3326" x1="633.622" y1="1.47772" x2="633.622" y2="287.417" gradientUnits="userSpaceOnUse">
<stop stop-color="#333333"/>
<stop offset="1" stop-color="#333333" stop-opacity="0"/>
</linearGradient>
<linearGradient id="paint9_linear_172_3326" x1="633.622" y1="-10.1954" x2="633.622" y2="265.709" gradientUnits="userSpaceOnUse">
<stop stop-color="#333333"/>
<stop offset="1" stop-color="#333333" stop-opacity="0"/>
</linearGradient>
<linearGradient id="paint10_linear_172_3326" x1="633.603" y1="-23.809" x2="633.603" y2="246.617" gradientUnits="userSpaceOnUse">
<stop stop-color="#333333"/>
<stop offset="1" stop-color="#333333" stop-opacity="0"/>
</linearGradient>
<linearGradient id="paint11_linear_172_3326" x1="633.613" y1="-37.1967" x2="633.613" y2="230.16" gradientUnits="userSpaceOnUse">
<stop stop-color="#333333"/>
<stop offset="1" stop-color="#333333" stop-opacity="0"/>
</linearGradient>
<linearGradient id="paint12_linear_172_3326" x1="633.622" y1="-52.3088" x2="633.622" y2="215.541" gradientUnits="userSpaceOnUse">
<stop stop-color="#333333"/>
<stop offset="1" stop-color="#333333" stop-opacity="0"/>
</linearGradient>
<linearGradient id="paint13_linear_172_3326" x1="633.622" y1="-67.7277" x2="633.622" y2="203.702" gradientUnits="userSpaceOnUse">
<stop stop-color="#333333"/>
<stop offset="1" stop-color="#333333" stop-opacity="0"/>
</linearGradient>
<linearGradient id="paint14_linear_172_3326" x1="633.622" y1="-84.1699" x2="633.622" y2="192.902" gradientUnits="userSpaceOnUse">
<stop stop-color="#333333"/>
<stop offset="1" stop-color="#333333" stop-opacity="0"/>
</linearGradient>
<linearGradient id="paint15_linear_172_3326" x1="633.622" y1="-102.745" x2="633.622" y2="181.863" gradientUnits="userSpaceOnUse">
<stop stop-color="#333333"/>
<stop offset="1" stop-color="#333333" stop-opacity="0"/>
</linearGradient>
<linearGradient id="paint16_linear_172_3326" x1="633.613" y1="-122.617" x2="633.613" y2="168.804" gradientUnits="userSpaceOnUse">
<stop stop-color="#333333"/>
<stop offset="1" stop-color="#333333" stop-opacity="0"/>
</linearGradient>
<linearGradient id="paint17_linear_172_3326" x1="633.622" y1="-141.535" x2="633.622" y2="151.266" gradientUnits="userSpaceOnUse">
<stop stop-color="#333333"/>
<stop offset="1" stop-color="#333333" stop-opacity="0"/>
</linearGradient>
<linearGradient id="paint18_linear_172_3326" x1="633.603" y1="-160.383" x2="633.603" y2="128.41" gradientUnits="userSpaceOnUse">
<stop stop-color="#333333"/>
<stop offset="1" stop-color="#333333" stop-opacity="0"/>
</linearGradient>
<linearGradient id="paint19_linear_172_3326" x1="633.613" y1="-184.254" x2="633.613" y2="97.9828" gradientUnits="userSpaceOnUse">
<stop stop-color="#333333"/>
<stop offset="1" stop-color="#333333" stop-opacity="0"/>
</linearGradient>
<linearGradient id="paint20_linear_172_3326" x1="633.613" y1="-211.266" x2="633.613" y2="57.5255" gradientUnits="userSpaceOnUse">
<stop stop-color="#333333"/>
<stop offset="1" stop-color="#333333" stop-opacity="0"/>
</linearGradient>
<linearGradient id="paint21_linear_172_3326" x1="633.613" y1="-223.746" x2="633.613" y2="37.5459" gradientUnits="userSpaceOnUse">
<stop stop-color="#333333"/>
<stop offset="1" stop-color="#333333" stop-opacity="0"/>
</linearGradient>
<linearGradient id="paint22_linear_172_3326" x1="633.603" y1="-232.983" x2="633.603" y2="15.7696" gradientUnits="userSpaceOnUse">
<stop stop-color="#333333"/>
<stop offset="1" stop-color="#333333" stop-opacity="0"/>
</linearGradient>
<linearGradient id="paint23_linear_172_3326" x1="633.613" y1="-239.65" x2="633.613" y2="-6.34358" gradientUnits="userSpaceOnUse">
<stop stop-color="#333333"/>
<stop offset="1" stop-color="#333333" stop-opacity="0"/>
</linearGradient>
<clipPath id="clip0_172_3326">
<rect width="1422" height="950" fill="white" transform="translate(-77.3398 -469)"/>
</clipPath>
</defs>
</svg>
